#!OML:ASF E:\emotionWalksFemale\Project 1\Capture day 1\Session 1\Female1.ASF
:FULLY-SPECIFIED
:DEGREES
3387
root 8.76311 15.3648 30.8146 3.46825 0.889052 -1.79638
lowerback 12.1628 0.44739 -0.771364
upperback 4.21213 0.620927 3.56193
thorax -2.45378 0.289599 4.06812
lowerneck -9.40532 -2.74098 -1.01712
upperneck -2.40782 -3.60374 5.81393
head 0.978151 -1.6989 1.87407
rclavicle 2.18663e-015 2.22639e-014
rhumerus -25.3619 -7.95607 -77.9849
rradius 33.2422
rwrist 16.3996
rhand -4.63836 -51.4079
rfingers 7.12502
rthumb 21.1408 -1160.28
lclavicle 2.18663e-015 2.22639e-014
lhumerus -23.0853 14.1688 87.5803
lradius 42.409
lwrist -6.24671
lhand -5.35467 -32.2085
lfingers 7.12502
lthumb 20.4526 -3.26565
rfemur -12.5972 9.1919 31.0064
rtibia 24.0177
rfoot -13.1954 -24.0346
rtoes 15.7031
lfemur -26.558 1.59738 -17.0209
ltibia 70.2582
lfoot -10.7602 1.73594
ltoes -32.0317
3388
root 8.7634 15.3514 30.8659 3.41716 0.632744 -1.84114
lowerback 12.0907 0.441248 -0.809176
upperback 4.29995 0.606262 3.60742
thorax -2.32234 0.279091 4.13941
lowerneck -9.54449 -2.71245 -1.05652
upperneck -2.32787 -3.56596 5.77481
head 1.02638 -1.67705 1.86858
rclavicle 1.19271e-014 2.54444e-014
rhumerus -25.1505 -7.20817 -78.2419
rradius 33.213
rwrist 16.3986
rhand -5.18597 -52.1183
rfingers 7.12502
rthumb 20.6147 -1161.04
lclavicle 1.19271e-014 2.54444e-014
lhumerus -23.0441 14.4232 87.7262
lradius 42.3613
lwrist -6.3476
lhand -5.12686 -32.0282
lfingers 7.12502
lthumb 20.6715 -3.10902
rfemur -12.4906 9.28541 31.0985
rtibia 24.3356
rfoot -13.5561 -23.9673
rtoes 15.6907
lfemur -27.1062 1.40059 -16.9555
ltibia 69.9128
lfoot -11.3327 2.45736
ltoes -35.7605
3389
root 8.76416 15.3405 30.9184 3.34619 0.310637 -1.98213
lowerback 12.1015 0.473264 -0.747078
upperback 4.34764 0.655506 3.6582
thorax -2.28218 0.302284 4.15064
lowerneck -9.34972 -2.6977 -1.118
upperneck -2.57346 -3.52868 5.82976
head 0.915659 -1.66462 1.90087
rclavicle -9.54166e-015 0
rhumerus -25.0586 -6.97933 -78.2673
rradius 33.1638
rwrist 16.2613
rhand -4.94412 -51.6383
rfingers 7.12502
rthumb 20.8471 -1160.54
lclavicle -9.54166e-015 0
lhumerus -23.0944 14.6402 87.8201
lradius 42.3614
lwrist -6.42957
lhand -4.7759 -31.8572
lfingers 7.12502
lthumb 21.0087 -2.97505
rfemur -12.3778 9.41639 31.3013
rtibia 24.7342
rfoot -13.9798 -23.9252
rtoes 15.5274
lfemur -27.6214 1.22327 -16.767
ltibia 69.448
lfoot -12.0093 2.99934
ltoes -38.2136
3390
root 8.76529 15.3314 30.9708 3.35958 -0.0127052 -1.99465
lowerback 12.1178 0.551764 -0.823052
upperback 4.34537 0.751574 3.70022
thorax -2.30217 0.349571 4.22487
lowerneck -9.33388 -2.75901 -1.22803
upperneck -2.73808 -3.59228 5.86073
head 0.866037 -1.6984 1.92842
rclavicle -7.15625e-015 -2.3059e-014
rhumerus -25.0797 -7.58898 -77.9475
rradius 33.1934
rwrist 16.1095
rhand -4.14296 -50.0627
rfingers 7.12502
rthumb 21.6167 -1158.88
lclavicle -7.15625e-015 -2.3059e-014
lhumerus -23.0582 14.561 87.9901
lradius 42.1289
lwrist -6.49419
lhand -4.7898 -31.7715
lfingers 7.12502
lthumb 20.9954 -2.88795
rfemur -12.3896 9.53162 31.3472
rtibia 25.1721
rfoot -14.3983 -23.8134
rtoes 15.9189
lfemur -28.1869 0.883499 -16.6591
ltibia 68.8354
lfoot -12.6811 3.12642
ltoes -36.5699
3391
root 8.76732 15.321 31.0238 3.4064 -0.211035 -1.91042
lowerback 12.0819 0.579174 -0.979329
upperback 4.33421 0.77049 3.73151
thorax -2.29781 0.358067 4.34444
lowerneck -9.49964 -2.8008 -1.32793
upperneck -2.72496 -3.63881 5.82123
head 0.901757 -1.71889 1.92995
rclavicle -3.97569e-016 -8.74653e-015
rhumerus -25.0576 -7.83556 -77.8403
rradius 33.1992
rwrist 16.336
rhand -4.22361 -49.9505
rfingers 7.12502
rthumb 21.5392 -1158.77
lclavicle -3.97569e-016 -8.74653e-015
lhumerus -23.0785 14.2262 88.2044
lradius 41.9157
lwrist -6.31771
lhand -5.34432 -31.5707
lfingers 7.12502
lthumb 20.4626 -2.62901
rfemur -12.4183 9.43798 31.2822
rtibia 25.5513
rfoot -14.7704 -23.6304
rtoes 15.9435
lfemur -28.7786 0.320527 -16.601
ltibia 68.0881
lfoot -13.0342 2.96034
ltoes -31.2844
3392
root 8.77077 15.3039 31.0765 3.37948 -0.334596 -1.90292
lowerback 12.0527 0.554814 -0.958031
upperback 4.35925 0.738687 3.7078
thorax -2.25265 0.341409 4.31166
lowerneck -9.39815 -2.76896 -1.3057
upperneck -2.94447 -3.58856 5.82065
head 0.811592 -1.69936 1.92922
rclavicle 1.09332e-014 3.73715e-014
rhumerus -25.0679 -7.95662 -77.9137
rradius 33.299
rwrist 16.4698
rhand -4.55811 -50.2651
rfingers 7.12502
rthumb 21.2179 -1159.12
lclavicle 1.09332e-014 3.73715e-014
lhumerus -23.1726 14.0003 88.257
lradius 41.8305
lwrist -6.02385
lhand -5.54502 -31.6305
lfingers 7.12502
lthumb 20.2697 -2.66813
rfemur -12.3377 9.23423 31.3151
rtibia 25.865
rfoot -15.1735 -23.4375
rtoes 15.8536
lfemur -29.24 -0.173829 -16.487
ltibia 67.2837
lfoot -12.9861 3.22715
ltoes -30.1849
3393
root 8.77513 15.2968 31.1325 3.32206 -0.547486 -2.03028
lowerback 12.0448 0.54582 -0.708853
upperback 4.39412 0.751835 3.65227
thorax -2.2099 0.348332 4.10903
lowerneck -9.3724 -2.74637 -1.14602
upperneck -3.08709 -3.56739 5.73656
head 0.75462 -1.69434 1.87499
rclavicle -5.96354e-016 -4.77083e-015
rhumerus -25.1618 -8.01625 -78.0773
rradius 33.4763
rwrist 16.5745
rhand -4.74949 -50.5238
rfingers 7.12502
rthumb 21.0341 -1159.4
lclavicle -5.96354e-016 -4.77083e-015
lhumerus -23.2852 13.9155 88.1717
lradius 41.792
lwrist -5.90358
lhand -5.20044 -31.7263
lfingers 7.12502
lthumb 20.6008 -2.79949
rfemur -12.1246 9.17701 31.4852
rtibia 26.055
rfoot -15.5781 -23.201
rtoes 16.1778
lfemur -29.6758 -0.620983 -16.1798
ltibia 66.4636
lfoot -13.3896 3.2804
ltoes -28.9286
3394
root 8.77841 15.2934 31.1901 3.33094 -0.877226 -2.21872
lowerback 12.0641 0.549006 -0.415887
upperback 4.36574 0.787559 3.58339
thorax -2.24876 0.368385 3.86451
lowerneck -9.52128 -2.74157 -1.00098
upperneck -2.99859 -3.58018 5.70329
head 0.804308 -1.69878 1.8365
rclavicle 8.15017e-015 3.89618e-014
rhumerus -25.1798 -7.9562 -78.3107
rradius 33.3519
rwrist 16.4552
rhand -5.17822 -50.4735
rfingers 7.12502
rthumb 20.6222 -1159.4
lclavicle 8.15017e-015 3.89618e-014
lhumerus -23.4213 13.883 88.0131
lradius 41.6128
lwrist -6.00966
lhand -4.87373 -31.5617
lfingers 7.12502
lthumb 20.9147 -2.66924
rfemur -11.8965 9.22466 31.7093
rtibia 26.1201
rfoot -15.7827 -22.9651
rtoes 15.8425
lfemur -30.1373 -0.949373 -15.8114
ltibia 65.61
lfoot -14.8565 3.33612
ltoes -29.5777
3395
root 8.77626 15.2872 31.2472 3.4435 -1.14305 -2.35863
lowerback 11.9707 0.538646 -0.314124
upperback 4.31442 0.783818 3.54761
thorax -2.24971 0.367527 3.76944
lowerneck -9.60819 -2.71831 -0.863105
upperneck -3.03001 -3.5624 5.68547
head 0.804623 -1.69074 1.80644
rclavicle -5.76476e-015 -3.97569e-015
rhumerus -25.1835 -8.00934 -78.4684
rradius 33.1972
rwrist 16.4749
rhand -5.58095 -50.1473
rfingers 7.12502
rthumb 20.2351 -1159.11
lclavicle -5.76476e-015 -3.97569e-015
lhumerus -23.47 13.9524 87.8738
lradius 41.2041
lwrist -6.26449
lhand -4.73479 -31.6193
lfingers 7.12502
lthumb 21.0482 -2.74159
rfemur -11.7289 9.33253 31.895
rtibia 26.0977
rfoot -15.9129 -22.9044
rtoes 15.4415
lfemur -30.6403 -1.31443 -15.453
ltibia 64.6947
lfoot -16.4859 3.24096
ltoes -31.4014
3396
root 8.77497 15.2816 31.3061 3.28715 -1.36273 -2.28969
lowerback 12.065 0.53215 -0.466131
upperback 4.35789 0.756171 3.50351
thorax -2.25486 0.352614 3.81341
lowerneck -9.50366 -2.69905 -0.784647
upperneck -3.34103 -3.52998 5.66855
head 0.684068 -1.68298 1.79024
rclavicle -3.57812e-015 -3.26007e-014
rhumerus -25.2385 -8.01237 -78.5118
rradius 33.199
rwrist 16.3632
rhand -5.47436 -49.575
rfingers 7.12502
rthumb 20.3376 -1158.53
lclavicle -3.57812e-015 -3.26007e-014
lhumerus -23.639 14.2069 87.7642
lradius 41.0517
lwrist -6.61012
lhand -4.7698 -31.8087
lfingers 7.12502
lthumb 21.0146 -2.92721
rfemur -11.2662 9.39686 31.8887
rtibia 26.0893
rfoot -16.2558 -22.8615
rtoes 15.77
lfemur -30.8042 -1.79569 -15.3261
ltibia 63.648
lfoot -16.7636 3.61951
ltoes -32.2447
3397
root 8.77733 15.2751 31.363 3.16102 -1.68671 -2.21702
lowerback 12.175 0.571884 -0.605902
upperback 4.36526 0.792338 3.47624
thorax -2.31082 0.370282 3.85921
lowerneck -9.37536 -2.71517 -0.920232
upperneck -3.6046 -3.52585 5.8149
head 0.585347 -1.68454 1.86381
rclavicle 4.96962e-015 5.40694e-014
rhumerus -25.3862 -7.60619 -78.6214
rradius 33.2507
rwrist 16.1861
rhand -5.52468 -50.2255
rfingers 7.12502
rthumb 20.2892 -1159.19
lclavicle 4.96962e-015 5.40694e-014
lhumerus -23.9137 14.3623 87.6857
lradius 40.9492
lwrist -6.75063
lhand -5.03848 -32.1195
lfingers 7.12502
lthumb 20.7564 -3.20961
rfemur -10.8943 9.46875 31.8523
rtibia 26.1334
rfoot -16.436 -22.7145
rtoes 15.5619
lfemur -30.9573 -2.25659 -15.1876
ltibia 62.4722
lfoot -16.1693 4.31217
ltoes -30.6893
3398
root 8.78185 15.2704 31.4166 3.19567 -1.98797 -2.21984
lowerback 12.1626 0.586165 -0.654999
upperback 4.33561 0.805538 3.47367
thorax -2.3365 0.377005 3.8826
lowerneck -9.47036 -2.66442 -0.971025
upperneck -3.60001 -3.45427 5.85817
head 0.6027 -1.64623 1.88863
rclavicle -3.97569e-016 1.27222e-014
rhumerus -25.4222 -7.47967 -78.6866
rradius 33.219
rwrist 16.0507
rhand -5.41134 -50.5908
rfingers 7.12502
rthumb 20.3981 -1159.54
lclavicle -3.97569e-016 1.27222e-014
lhumerus -24.0993 14.4007 87.6267
lradius 40.6552
lwrist -6.74439
lhand -5.10777 -32.3726
lfingers 7.12502
lthumb 20.6899 -3.45545
rfemur -10.7635 9.52349 31.8624
rtibia 26.2411
rfoot -16.5273 -22.5785
rtoes 14.8426
lfemur -31.2417 -2.81666 -14.9016
ltibia 61.191
lfoot -15.8773 4.53715
ltoes -25.1459
3399
root 8.78634 15.2679 31.4732 3.18972 -2.20109 -2.13549
lowerback 12.1074 0.561421 -0.794881
upperback 4.35747 0.75467 3.46018
thorax -2.28125 0.350064 3.95526
lowerneck -9.61958 -2.58327 -1.01627
upperneck -3.58568 -3.3433 5.84538
head 0.629318 -1.58803 1.89536
rclavicle 1.13307e-014 -8.74653e-015
rhumerus -25.3903 -7.48349 -78.7175
rradius 33.1703
rwrist 16.1476
rhand -5.08247 -50.4957
rfingers 7.12502
rthumb 20.7142 -1159.41
lclavicle 1.13307e-014 -8.74653e-015
lhumerus -24.2156 14.6325 87.5769
lradius 40.4202
lwrist -6.98551
lhand -4.81939 -32.1702
lfingers 7.12502
lthumb 20.9669 -3.2835
rfemur -10.5467 9.53991 31.7826
rtibia 26.338
rfoot -16.9309 -22.4364
rtoes 14.9416
lfemur -31.4592 -3.515 -14.6747
ltibia 59.8373
lfoot -15.6557 4.49244
ltoes -17.0454
3400
root 8.79252 15.2566 31.528 3.2513 -2.4655 -2.1429
lowerback 12.0581 0.550351 -0.821399
upperback 4.35161 0.735902 3.45315
thorax -2.25937 0.340221 3.96557
lowerneck -9.74889 -2.57456 -1.17764
upperneck -3.67129 -3.31263 5.95961
head 0.629399 -1.5692 1.96158
rclavicle -1.72943e-014 -3.65764e-014
rhumerus -25.4296 -7.42641 -78.7343
rradius 33.1593
rwrist 16.2981
rhand -4.77583 -50.3179
rfingers 7.12502
rthumb 21.0088 -1159.2
lclavicle -1.72943e-014 -3.65764e-014
lhumerus -24.3218 14.9725 87.4859
lradius 40.2234
lwrist -7.31059
lhand -4.5328 -31.9983
lfingers 7.12502
lthumb 21.2422 -3.14229
rfemur -10.3582 9.61199 31.7818
rtibia 26.3519
rfoot -17.2631 -22.2413
rtoes 15.1837
lfemur -31.7431 -4.13986 -14.3513
ltibia 58.4878
lfoot -15.6155 4.82202
ltoes -14.1956
3401
root 8.79828 15.2517 31.5814 3.33524 -2.80698 -2.21376
lowerback 12.0091 0.578136 -0.760202
upperback 4.3438 0.776989 3.40036
thorax -2.24274 0.360885 3.86939
lowerneck -9.92518 -2.58723 -1.12524
upperneck -3.79409 -3.33035 6.01467
head 0.620906 -1.5776 1.96853
rclavicle 1.39149e-015 7.15625e-015
rhumerus -25.4482 -7.5319 -78.8144
rradius 33.0888
rwrist 16.4234
rhand -4.81434 -50.0846
rfingers 7.12502
rthumb 20.9718 -1158.97
lclavicle 1.39149e-015 7.15625e-015
lhumerus -24.396 15.143 87.3218
lradius 39.9275
lwrist -7.56471
lhand -4.40224 -32.1778
lfingers 7.12502
lthumb 21.3677 -3.33598
rfemur -10.2032 9.70582 31.8379
rtibia 26.3507
rfoot -17.3838 -22.0702
rtoes 14.7808
lfemur -31.9927 -4.69595 -13.972
ltibia 57.118
lfoot -16.2606 5.62509
ltoes -18.3523
